<svg width="16" height="12" viewBox="0 0 16 12" fill="none" xmlns="http://www.w3.org/2000/svg">
<path d="M0 11.6364V9.6C0 9.18788 0.106061 8.80909 0.318182 8.46364C0.530303 8.11818 0.812121 7.85455 1.16364 7.67273C1.91515 7.29697 2.67879 7.01515 3.45455 6.82727C4.2303 6.63939 5.01818 6.54545 5.81818 6.54545C6.61818 6.54545 7.40606 6.63939 8.18182 6.82727C8.95758 7.01515 9.72121 7.29697 10.4727 7.67273C10.8242 7.85455 11.1061 8.11818 11.3182 8.46364C11.5303 8.80909 11.6364 9.18788 11.6364 9.6V11.6364H0ZM13.0909 11.6364V9.45455C13.0909 8.92121 12.9424 8.40909 12.6455 7.91818C12.3485 7.42727 11.9273 7.00606 11.3818 6.65455C12 6.72727 12.5818 6.85152 13.1273 7.02727C13.6727 7.20303 14.1818 7.41818 14.6545 7.67273C15.0909 7.91515 15.4242 8.18485 15.6545 8.48182C15.8848 8.77879 16 9.10303 16 9.45455V11.6364H13.0909ZM5.81818 5.81818C5.01818 5.81818 4.33333 5.53333 3.76364 4.96364C3.19394 4.39394 2.90909 3.70909 2.90909 2.90909C2.90909 2.10909 3.19394 1.42424 3.76364 0.854546C4.33333 0.284849 5.01818 0 5.81818 0C6.61818 0 7.30303 0.284849 7.87273 0.854546C8.44242 1.42424 8.72727 2.10909 8.72727 2.90909C8.72727 3.70909 8.44242 4.39394 7.87273 4.96364C7.30303 5.53333 6.61818 5.81818 5.81818 5.81818ZM13.0909 2.90909C13.0909 3.70909 12.8061 4.39394 12.2364 4.96364C11.6667 5.53333 10.9818 5.81818 10.1818 5.81818C10.0485 5.81818 9.87879 5.80303 9.67273 5.77273C9.46667 5.74242 9.29697 5.70909 9.16364 5.67273C9.49091 5.28485 9.74242 4.85455 9.91818 4.38182C10.0939 3.90909 10.1818 3.41818 10.1818 2.90909C10.1818 2.4 10.0939 1.90909 9.91818 1.43636C9.74242 0.963636 9.49091 0.533333 9.16364 0.145455C9.33333 0.0848485 9.50303 0.0454545 9.67273 0.0272727C9.84242 0.00909091 10.0121 0 10.1818 0C10.9818 0 11.6667 0.284849 12.2364 0.854546C12.8061 1.42424 13.0909 2.10909 13.0909 2.90909ZM1.45455 10.1818H10.1818V9.6C10.1818 9.46667 10.1485 9.34545 10.0818 9.23636C10.0152 9.12727 9.92727 9.04243 9.81818 8.98182C9.16364 8.65455 8.50303 8.40909 7.83636 8.24545C7.1697 8.08182 6.49697 8 5.81818 8C5.13939 8 4.46667 8.08182 3.8 8.24545C3.13333 8.40909 2.47273 8.65455 1.81818 8.98182C1.70909 9.04243 1.62121 9.12727 1.55455 9.23636C1.48788 9.34545 1.45455 9.46667 1.45455 9.6V10.1818ZM5.81818 4.36364C6.21818 4.36364 6.56061 4.22121 6.84546 3.93636C7.1303 3.65152 7.27273 3.30909 7.27273 2.90909C7.27273 2.50909 7.1303 2.16667 6.84546 1.88182C6.56061 1.59697 6.21818 1.45455 5.81818 1.45455C5.41818 1.45455 5.07576 1.59697 4.79091 1.88182C4.50606 2.16667 4.36364 2.50909 4.36364 2.90909C4.36364 3.30909 4.50606 3.65152 4.79091 3.93636C5.07576 4.22121 5.41818 4.36364 5.81818 4.36364Z" fill="#BDBDBD"/>
</svg>
