<svg width="18" height="14" viewBox="0 0 18 14" fill="none" xmlns="http://www.w3.org/2000/svg">
<path d="M0 14V11.55C0 11.0542 0.119318 10.5984 0.357955 10.1828C0.596591 9.76719 0.913636 9.45 1.30909 9.23125C2.15455 8.77917 3.01364 8.4401 3.88636 8.21406C4.75909 7.98802 5.64545 7.875 6.54545 7.875C7.44545 7.875 8.33182 7.98802 9.20455 8.21406C10.0773 8.4401 10.9364 8.77917 11.7818 9.23125C12.1773 9.45 12.4943 9.76719 12.733 10.1828C12.9716 10.5984 13.0909 11.0542 13.0909 11.55V14H0ZM14.7273 14V11.375C14.7273 10.7333 14.5602 10.1172 14.2261 9.52656C13.892 8.93594 13.4182 8.42917 12.8045 8.00625C13.5 8.09375 14.1545 8.24323 14.7682 8.45469C15.3818 8.66615 15.9545 8.925 16.4864 9.23125C16.9773 9.52292 17.3523 9.8474 17.6114 10.2047C17.8705 10.562 18 10.9521 18 11.375V14H14.7273ZM6.54545 7C5.64545 7 4.875 6.65729 4.23409 5.97188C3.59318 5.28646 3.27273 4.4625 3.27273 3.5C3.27273 2.5375 3.59318 1.71354 4.23409 1.02813C4.875 0.342708 5.64545 0 6.54545 0C7.44545 0 8.21591 0.342708 8.85682 1.02813C9.49773 1.71354 9.81818 2.5375 9.81818 3.5C9.81818 4.4625 9.49773 5.28646 8.85682 5.97188C8.21591 6.65729 7.44545 7 6.54545 7ZM14.7273 3.5C14.7273 4.4625 14.4068 5.28646 13.7659 5.97188C13.125 6.65729 12.3545 7 11.4545 7C11.3045 7 11.1136 6.98177 10.8818 6.94531C10.65 6.90885 10.4591 6.86875 10.3091 6.825C10.6773 6.35833 10.9602 5.84063 11.158 5.27187C11.3557 4.70312 11.4545 4.1125 11.4545 3.5C11.4545 2.8875 11.3557 2.29688 11.158 1.72812C10.9602 1.15937 10.6773 0.641667 10.3091 0.175C10.5 0.102083 10.6909 0.0546875 10.8818 0.0328125C11.0727 0.0109375 11.2636 0 11.4545 0C12.3545 0 13.125 0.342708 13.7659 1.02813C14.4068 1.71354 14.7273 2.5375 14.7273 3.5ZM1.63636 12.25H11.4545V11.55C11.4545 11.3896 11.417 11.2437 11.342 11.1125C11.267 10.9812 11.1682 10.8792 11.0455 10.8063C10.3091 10.4125 9.56591 10.1172 8.81591 9.92031C8.06591 9.72344 7.30909 9.625 6.54545 9.625C5.78182 9.625 5.025 9.72344 4.275 9.92031C3.525 10.1172 2.78182 10.4125 2.04545 10.8063C1.92273 10.8792 1.82386 10.9812 1.74886 11.1125C1.67386 11.2437 1.63636 11.3896 1.63636 11.55V12.25ZM6.54545 5.25C6.99545 5.25 7.38068 5.07865 7.70114 4.73594C8.02159 4.39323 8.18182 3.98125 8.18182 3.5C8.18182 3.01875 8.02159 2.60677 7.70114 2.26406C7.38068 1.92135 6.99545 1.75 6.54545 1.75C6.09545 1.75 5.71023 1.92135 5.38977 2.26406C5.06932 2.60677 4.90909 3.01875 4.90909 3.5C4.90909 3.98125 5.06932 4.39323 5.38977 4.73594C5.71023 5.07865 6.09545 5.25 6.54545 5.25Z" fill="#3374F3" fill-opacity="0.8"/>
</svg>
