<svg width="16" height="14" viewBox="0 0 16 14" fill="none" xmlns="http://www.w3.org/2000/svg">
<path d="M3.20427 13.4088C2.8918 13.4088 2.61171 13.3151 2.36401 13.1277C2.1163 12.9403 1.94845 12.6943 1.86044 12.3898L0.0271026 5.81145C-0.0322237 5.59192 0.00584679 5.38921 0.141314 5.20331C0.276794 5.0174 0.460718 4.92445 0.693087 4.92445H4.33454L7.41678 0.309988C7.48106 0.212096 7.56363 0.135955 7.6645 0.0815653C7.76536 0.0271882 7.87512 0 7.99377 0C8.11244 0 8.2222 0.0284286 8.32306 0.0852867C8.42393 0.142145 8.50649 0.21952 8.57077 0.317412L11.6382 4.92445H15.3034C15.5357 4.92445 15.7209 5.0174 15.8588 5.20331C15.9968 5.38921 16.0336 5.59192 15.9694 5.81145L14.1212 12.3898C14.0332 12.6943 13.8653 12.9403 13.6176 13.1277C13.3699 13.3151 13.0898 13.4088 12.7773 13.4088H3.20427ZM3.16273 12.2518H12.8337C12.8881 12.2518 12.9351 12.2358 12.9746 12.2036C13.0142 12.1715 13.0414 12.1282 13.0562 12.0738L14.7086 6.08139H1.28786L2.94023 12.0738C2.95507 12.1282 2.98226 12.1715 3.02182 12.2036C3.06137 12.2358 3.10834 12.2518 3.16273 12.2518ZM7.99823 10.3236C8.31367 10.3236 8.58535 10.2096 8.81327 9.98165C9.0412 9.75373 9.15517 9.48205 9.15517 9.16661C9.15517 8.85117 9.0412 8.57949 8.81327 8.35157C8.58535 8.12364 8.31367 8.00967 7.99823 8.00967C7.68279 8.00967 7.41111 8.12364 7.18319 8.35157C6.95526 8.57949 6.84129 8.85117 6.84129 9.16661C6.84129 9.48205 6.95526 9.75373 7.18319 9.98165C7.41111 10.2096 7.68279 10.3236 7.99823 10.3236ZM5.7377 4.92445H10.2469L7.98637 1.52179L5.7377 4.92445Z" fill="#BDBDBD"/>
</svg>
