<svg width="20" height="17" viewBox="0 0 20 17" fill="none" xmlns="http://www.w3.org/2000/svg">
<path d="M4.00534 17C3.61475 17 3.26464 16.8812 2.95501 16.6436C2.64538 16.4061 2.43556 16.0942 2.32555 15.7081L0.0338783 7.3679C-0.0402796 7.08958 0.00730849 6.83258 0.176642 6.59689C0.345992 6.36119 0.575898 6.24334 0.866359 6.24334H5.41818L9.27097 0.393011C9.35132 0.268901 9.45454 0.172368 9.58063 0.103411C9.70671 0.0344699 9.8439 0 9.99222 0C10.1406 0 10.2778 0.0360425 10.4038 0.108129C10.5299 0.180215 10.6331 0.278313 10.7135 0.402423L14.5477 6.24334H19.1292C19.4197 6.24334 19.6511 6.36119 19.8236 6.59689C19.996 6.83258 20.042 7.08958 19.9617 7.3679L17.6515 15.7081C17.5415 16.0942 17.3317 16.4061 17.022 16.6436C16.7124 16.8812 16.3623 17 15.9717 17H4.00534ZM3.95342 15.5332H16.0422C16.1101 15.5332 16.1689 15.5128 16.2183 15.4721C16.2677 15.4313 16.3017 15.3765 16.3203 15.3075L18.3857 7.71014H1.60983L3.67529 15.3075C3.69383 15.3765 3.72783 15.4313 3.77727 15.4721C3.82671 15.5128 3.88543 15.5332 3.95342 15.5332ZM9.99779 13.0885C10.3921 13.0885 10.7317 12.944 11.0166 12.655C11.3015 12.366 11.444 12.0216 11.444 11.6217C11.444 11.2217 11.3015 10.8773 11.0166 10.5883C10.7317 10.2994 10.3921 10.1549 9.99779 10.1549C9.60349 10.1549 9.26389 10.2994 8.97899 10.5883C8.69407 10.8773 8.55161 11.2217 8.55161 11.6217C8.55161 12.0216 8.69407 12.366 8.97899 12.655C9.26389 12.944 9.60349 13.0885 9.99779 13.0885ZM7.17213 6.24334H12.8086L9.98296 1.92936L7.17213 6.24334Z" fill="#3374F3" fill-opacity="0.8"/>
</svg>
